<svg viewBox="0 0 395.52 247.2" height="247.2" width="395.52"><g><svg></svg></g><g><svg viewBox="0 0 395.52 247.2" height="247.2" width="395.52"><g transform="matrix(1,0,0,1,75.54432,98.68443907863383)"><svg viewBox="0 0 244.43135999999998 49.83112184273232" height="49.83112184273232" width="244.43135999999998"><g><svg viewBox="0 0 244.43135999999998 49.83112184273232" height="49.83112184273232" width="244.43135999999998"><g><svg viewBox="0 0 244.43135999999998 49.83112184273232" height="49.83112184273232" width="244.43135999999998"><g><svg viewBox="0 0 244.43135999999998 49.83112184273232" height="49.83112184273232" width="244.43135999999998"><g id="textblocktransform"><svg viewBox="0 0 244.43135999999998 49.83112184273232" height="49.83112184273232" width="244.43135999999998" id="textblock"><g><svg viewBox="0 0 244.43135999999998 49.83112184273232" height="49.83112184273232" width="244.43135999999998"><g transform="matrix(1,0,0,1,0,0)"><svg width="244.43135999999998" viewBox="1.6500000953674316 -37.900001525878906 188.8400115966797 38.5" height="49.83112184273232" data-palette-color="#000000"><path d="M1.65 0L1.65-1.75 5.55-1.75 5.55-35 1.65-35.5 1.65-36.8 8.45-37.9 8.45-21.65 8.65-21.65Q8.95-22.5 9.58-23.33 10.2-24.15 11.13-24.78 12.05-25.4 13.33-25.8 14.6-26.2 16.2-26.2L16.2-26.2Q20.75-26.2 22.75-23.8 24.75-21.4 24.75-16.55L24.75-16.55 24.75-1.75 28.65-1.75 28.65 0 17.95 0 17.95-1.75 21.85-1.75 21.85-16.25Q21.85-20.3 20.2-22.2 18.55-24.1 15.2-24.1L15.2-24.1Q13.9-24.1 12.7-23.75 11.5-23.4 10.55-22.68 9.6-21.95 9.03-20.88 8.45-19.8 8.45-18.35L8.45-18.35 8.45-1.75 12.35-1.75 12.35 0 1.65 0ZM44.2-1.25L44.2-1.25Q46.2-1.25 47.7-1.95 49.2-2.65 50.22-3.88 51.25-5.1 51.75-6.83 52.25-8.55 52.25-10.65L52.25-10.65 52.25-14.95Q52.25-17.05 51.75-18.78 51.25-20.5 50.22-21.73 49.2-22.95 47.7-23.65 46.2-24.35 44.2-24.35L44.2-24.35Q42.2-24.35 40.7-23.65 39.2-22.95 38.17-21.73 37.15-20.5 36.65-18.78 36.15-17.05 36.15-14.95L36.15-14.95 36.15-10.65Q36.15-8.55 36.65-6.83 37.15-5.1 38.17-3.88 39.2-2.65 40.7-1.95 42.2-1.25 44.2-1.25ZM44.2 0.6L44.2 0.6Q41.6 0.6 39.52-0.3 37.45-1.2 35.97-2.93 34.5-4.65 33.7-7.15 32.9-9.65 32.9-12.8L32.9-12.8Q32.9-15.95 33.7-18.43 34.5-20.9 35.97-22.63 37.45-24.35 39.52-25.28 41.6-26.2 44.2-26.2L44.2-26.2Q46.8-26.2 48.87-25.28 50.95-24.35 52.42-22.63 53.9-20.9 54.7-18.43 55.5-15.95 55.5-12.8L55.5-12.8Q55.5-9.65 54.7-7.15 53.9-4.65 52.42-2.93 50.95-1.2 48.87-0.3 46.8 0.6 44.2 0.6ZM60.34 0L60.34-1.75 64.25-1.75 64.25-23.2 60.34-23.7 60.34-25 67.09-26.1 67.09-21.6 67.3-21.6Q67.59-22.45 68.22-23.28 68.84-24.1 69.75-24.75 70.65-25.4 71.9-25.8 73.15-26.2 74.75-26.2L74.75-26.2Q81.09-26.2 82.65-20.85L82.65-20.85 82.8-20.85Q83.15-21.9 83.82-22.85 84.5-23.8 85.47-24.55 86.45-25.3 87.77-25.75 89.09-26.2 90.8-26.2L90.8-26.2Q95.3-26.2 97.32-23.78 99.34-21.35 99.34-16.5L99.34-16.5 99.34-1.75 103.25-1.75 103.25 0 92.55 0 92.55-1.75 96.45-1.75 96.45-16.25Q96.45-20.3 94.8-22.2 93.15-24.1 89.84-24.1L89.84-24.1Q88.55-24.1 87.37-23.75 86.2-23.4 85.27-22.68 84.34-21.95 83.8-20.85 83.25-19.75 83.25-18.3L83.25-18.3 83.25-1.75 87.15-1.75 87.15 0 76.45 0 76.45-1.75 80.34-1.75 80.34-16.25Q80.34-20.3 78.72-22.2 77.09-24.1 73.8-24.1L73.8-24.1Q72.5-24.1 71.3-23.75 70.09-23.4 69.17-22.68 68.25-21.95 67.7-20.85 67.14-19.75 67.14-18.3L67.14-18.3 67.14-1.75 71.05-1.75 71.05 0 60.34 0ZM107.14 0L107.14-1.75 111.04-1.75 111.04-23.2 107.14-23.7 107.14-25 113.89-26.1 113.89-21.6 114.09-21.6Q114.39-22.45 115.02-23.28 115.64-24.1 116.54-24.75 117.44-25.4 118.69-25.8 119.94-26.2 121.54-26.2L121.54-26.2Q127.89-26.2 129.44-20.85L129.44-20.85 129.59-20.85Q129.94-21.9 130.62-22.85 131.29-23.8 132.27-24.55 133.24-25.3 134.57-25.75 135.89-26.2 137.59-26.2L137.59-26.2Q142.09-26.2 144.12-23.78 146.14-21.35 146.14-16.5L146.14-16.5 146.14-1.75 150.04-1.75 150.04 0 139.34 0 139.34-1.75 143.24-1.75 143.24-16.25Q143.24-20.3 141.59-22.2 139.94-24.1 136.64-24.1L136.64-24.1Q135.34-24.1 134.17-23.75 132.99-23.4 132.07-22.68 131.14-21.95 130.59-20.85 130.04-19.75 130.04-18.3L130.04-18.3 130.04-1.75 133.94-1.75 133.94 0 123.24 0 123.24-1.75 127.14-1.75 127.14-16.25Q127.14-20.3 125.52-22.2 123.89-24.1 120.59-24.1L120.59-24.1Q119.29-24.1 118.09-23.75 116.89-23.4 115.97-22.68 115.04-21.95 114.49-20.85 113.94-19.75 113.94-18.3L113.94-18.3 113.94-1.75 117.84-1.75 117.84 0 107.14 0ZM159.29-32.4L159.29-32.4Q158.29-32.4 157.74-33.02 157.19-33.65 157.19-34.5L157.19-34.5 157.19-34.7Q157.19-35.55 157.74-36.18 158.29-36.8 159.29-36.8L159.29-36.8Q160.29-36.8 160.84-36.18 161.39-35.55 161.39-34.7L161.39-34.7 161.39-34.5Q161.39-33.65 160.84-33.02 160.29-32.4 159.29-32.4ZM153.94 0L153.94-1.75 157.84-1.75 157.84-23.2 153.94-23.7 153.94-25 160.74-26.1 160.74-1.75 164.64-1.75 164.64 0 153.94 0ZM180.19 0.6L180.19 0.6Q174.99 0.6 171.94-2.9 168.89-6.4 168.89-12.8L168.89-12.8Q168.89-15.85 169.71-18.35 170.54-20.85 172.04-22.58 173.54-24.3 175.59-25.25 177.64-26.2 180.09-26.2L180.09-26.2Q182.49-26.2 184.41-25.3 186.34-24.4 187.69-22.83 189.04-21.25 189.76-19.03 190.49-16.8 190.49-14.2L190.49-14.2 190.49-13.35 172.09-13.35 172.09-11.75Q172.09-6.9 174.44-4.3 176.79-1.7 180.59-1.7L180.59-1.7Q183.74-1.7 185.71-3.1 187.69-4.5 188.74-6.55L188.74-6.55 189.99-5.8Q189.49-4.6 188.64-3.45 187.79-2.3 186.56-1.4 185.34-0.5 183.76 0.05 182.19 0.6 180.19 0.6ZM172.09-15.4L172.09-15.05 187.44-15.05 187.44-15.35Q187.44-17.3 186.99-18.95 186.54-20.6 185.61-21.83 184.69-23.05 183.31-23.73 181.94-24.4 180.09-24.4L180.09-24.4Q178.24-24.4 176.76-23.75 175.29-23.1 174.24-21.9 173.19-20.7 172.64-19.05 172.09-17.4 172.09-15.4L172.09-15.4Z" opacity="1" transform="matrix(1,0,0,1,0,0)" fill="#000000" class="wordmark-text-0" data-fill-palette-color="primary" id="text-0"></path></svg></g></svg></g></svg></g></svg></g><g></g></svg></g></svg></g></svg></g><g><path d="M81.178 86.921A122.216 122.216 0 0 1 314.342 86.921L309.848 86.921A117.722 117.722 0 0 0 85.672 86.921L81.178 86.921M81.178 160.279A122.216 122.216 0 0 0 314.342 160.279L309.848 160.279A117.722 117.722 0 0 1 85.672 160.279L81.178 160.279" fill="#000000" stroke="transparent" data-fill-palette-color="tertiary"></path></g></svg></g><defs></defs></svg>